<?xml version="1.0" encoding="utf-8" standalone="no"?>
<!DOCTYPE svg PUBLIC "-//W3C//DTD SVG 1.1//EN"
  "http://www.w3.org/Graphics/SVG/1.1/DTD/svg11.dtd">
<svg xmlns:xlink="http://www.w3.org/1999/xlink" width="54pt" height="27pt" viewBox="0 0 54 27" xmlns="http://www.w3.org/2000/svg" version="1.1">
 <metadata>
  <rdf:RDF xmlns:dc="http://purl.org/dc/elements/1.1/" xmlns:cc="http://creativecommons.org/ns#" xmlns:rdf="http://www.w3.org/1999/02/22-rdf-syntax-ns#">
   <cc:Work>
    <dc:type rdf:resource="http://purl.org/dc/dcmitype/StillImage"/>
    <dc:date>2025-10-30T11:03:57.788513</dc:date>
    <dc:format>image/svg+xml</dc:format>
    <dc:creator>
     <cc:Agent>
      <dc:title>Matplotlib v3.10.1, https://matplotlib.org/</dc:title>
     </cc:Agent>
    </dc:creator>
   </cc:Work>
  </rdf:RDF>
 </metadata>
 <defs>
  <style type="text/css">*{stroke-linejoin: round; stroke-linecap: butt}</style>
 </defs>
 <g id="figure_1">
  <g id="patch_1">
   <path d="M 0 27 
L 54 27 
L 54 0 
L 0 0 
z
" style="fill: #ffffff"/>
  </g>
  <g id="axes_1">
   <g id="patch_2">
    <path d="M 6.75 24.03 
L 48.6 24.03 
L 48.6 3.24 
L 6.75 3.24 
z
" style="fill: #ffffff"/>
   </g>
   <g id="matplotlib.axis_1">
    <g id="xtick_1">
     <g id="line2d_1">
      <defs>
       <path id="m9d66427843" d="M 0 0 
L 0 2 
" style="stroke: #000000; stroke-width: 0.8"/>
      </defs>
      <g>
       <use xlink:href="#m9d66427843" x="6.75" y="24.03" style="stroke: #000000; stroke-width: 0.8"/>
      </g>
     </g>
     <g id="text_1">
      <!-- $-\pi$ -->
      <g transform="translate(1.02532 35.064802) scale(0.08 -0.08)">
       <defs>
        <path id="CMSY10-0" d="M 4218 1472 
C 4326 1472 4442 1472 4442 1600 
C 4442 1728 4326 1728 4218 1728 
L 755 1728 
C 646 1728 531 1728 531 1600 
C 531 1472 646 1472 755 1472 
L 4218 1472 
z
" transform="scale(0.015625)"/>
        <path id="CMMI12-19" d="M 1658 2408 
L 2381 2408 
C 2208 1692 2099 1226 2099 716 
C 2099 626 2099 -64 2362 -64 
C 2496 -64 2611 57 2611 166 
C 2611 197 2611 210 2566 306 
C 2394 747 2394 1296 2394 1341 
C 2394 1379 2394 1832 2528 2408 
L 3245 2408 
C 3328 2408 3539 2408 3539 2612 
C 3539 2752 3418 2752 3302 2752 
L 1197 2752 
C 1050 2752 832 2752 538 2440 
C 371 2254 166 1916 166 1878 
C 166 1840 198 1827 237 1827 
C 282 1827 288 1846 320 1884 
C 653 2408 986 2408 1146 2408 
L 1510 2408 
C 1370 1929 1210 1373 685 256 
C 634 154 634 140 634 102 
C 634 -32 749 -64 806 -64 
C 992 -64 1043 102 1120 370 
C 1222 696 1222 709 1286 964 
L 1658 2408 
z
" transform="scale(0.015625)"/>
       </defs>
       <use xlink:href="#CMSY10-0" transform="scale(0.996264)"/>
       <use xlink:href="#CMMI12-19" transform="translate(77.487468 0) scale(0.996264)"/>
      </g>
     </g>
    </g>
    <g id="xtick_2">
     <g id="line2d_2">
      <g>
       <use xlink:href="#m9d66427843" x="27.675" y="24.03" style="stroke: #000000; stroke-width: 0.8"/>
      </g>
     </g>
     <g id="text_2">
      <!-- 0 -->
      <g transform="translate(25.557909 35.064802) scale(0.08 -0.08)">
       <defs>
        <path id="CMR17-30" d="M 2688 2025 
C 2688 2416 2682 3080 2413 3591 
C 2176 4039 1798 4198 1466 4198 
C 1158 4198 768 4058 525 3597 
C 269 3118 243 2524 243 2025 
C 243 1661 250 1106 448 619 
C 723 -39 1216 -128 1466 -128 
C 1760 -128 2208 -7 2470 600 
C 2662 1042 2688 1559 2688 2025 
z
M 1466 -26 
C 1056 -26 813 325 723 812 
C 653 1188 653 1738 653 2096 
C 653 2588 653 2997 736 3387 
C 858 3929 1216 4096 1466 4096 
C 1728 4096 2067 3923 2189 3400 
C 2272 3036 2278 2607 2278 2096 
C 2278 1680 2278 1169 2202 792 
C 2067 95 1690 -26 1466 -26 
z
" transform="scale(0.015625)"/>
       </defs>
       <use xlink:href="#CMR17-30" transform="scale(0.996264)"/>
      </g>
     </g>
    </g>
    <g id="xtick_3">
     <g id="line2d_3">
      <g>
       <use xlink:href="#m9d66427843" x="48.6" y="24.03" style="stroke: #000000; stroke-width: 0.8"/>
      </g>
     </g>
     <g id="text_3">
      <!-- $\pi$ -->
      <g transform="translate(46.168574 35.064802) scale(0.08 -0.08)">
       <use xlink:href="#CMMI12-19" transform="scale(0.996264)"/>
      </g>
     </g>
    </g>
    <g id="text_4">
     <!-- $\varphi-\beta$ -->
     <g transform="translate(17.364908 42.038802) scale(0.08 -0.08)">
      <defs>
       <path id="CMMI12-27" d="M 1926 280 
C 1818 280 1722 280 1722 312 
C 1722 325 1830 926 1869 1067 
C 2074 1884 2560 2472 3117 2472 
C 3533 2472 3725 2159 3725 1808 
C 3725 1080 2906 280 1926 280 
z
M 1651 -51 
C 1690 -57 1754 -64 1869 -64 
C 2918 -64 3885 945 3885 1954 
C 3885 2344 3712 2816 3174 2816 
C 2253 2816 1862 1519 1504 318 
C 768 458 461 848 461 1276 
C 461 1449 595 2133 966 2592 
C 1037 2676 1037 2689 1037 2702 
C 1037 2753 986 2753 973 2753 
C 800 2753 314 1820 314 1213 
C 314 497 877 107 1395 -7 
L 1062 -1088 
C 1030 -1184 1030 -1196 1030 -1222 
C 1030 -1376 1184 -1376 1197 -1376 
C 1261 -1376 1376 -1351 1427 -1223 
C 1446 -1166 1626 -178 1651 -51 
z
" transform="scale(0.015625)"/>
       <path id="CMMI12-c" d="M 3622 3701 
C 3622 4081 3296 4480 2714 4480 
C 1888 4480 1363 3477 1197 2816 
L 186 -1172 
C 173 -1223 211 -1236 243 -1236 
C 288 -1236 320 -1230 326 -1198 
L 774 586 
C 838 229 1190 -64 1568 -64 
C 2483 -64 3347 650 3347 1599 
C 3347 1841 3290 2083 3155 2287 
C 3078 2408 2982 2497 2880 2574 
C 3341 2815 3622 3200 3622 3701 
z
M 2509 2580 
C 2406 2542 2304 2529 2182 2529 
C 2093 2529 2010 2523 1894 2561 
C 1958 2606 2054 2618 2189 2618 
C 2304 2618 2419 2606 2509 2580 
z
M 3290 3758 
C 3290 3410 3117 2903 2701 2669 
C 2579 2718 2413 2752 2272 2752 
C 2138 2752 1754 2752 1754 2555 
C 1754 2389 2106 2389 2214 2389 
C 2381 2389 2528 2432 2682 2484 
C 2886 2318 2976 2101 2976 1783 
C 2976 1413 2874 1115 2752 841 
C 2541 369 2042 64 1600 64 
C 1133 64 890 432 890 864 
C 890 922 890 1005 915 1099 
L 1331 2771 
C 1542 3603 2080 4353 2701 4353 
C 3162 4353 3290 4036 3290 3758 
z
" transform="scale(0.015625)"/>
      </defs>
      <use xlink:href="#CMMI12-27" transform="scale(0.996264)"/>
      <use xlink:href="#CMSY10-0" transform="translate(86.042271 0) scale(0.996264)"/>
      <use xlink:href="#CMMI12-c" transform="translate(185.668945 0) scale(0.996264)"/>
     </g>
    </g>
   </g>
   <g id="matplotlib.axis_2">
    <g id="ytick_1">
     <g id="line2d_4">
      <defs>
       <path id="m24e2eaf988" d="M 0 0 
L -2 0 
" style="stroke: #000000; stroke-width: 0.8"/>
      </defs>
      <g>
       <use xlink:href="#m24e2eaf988" x="6.75" y="24.03" style="stroke: #000000; stroke-width: 0.8"/>
      </g>
     </g>
     <g id="text_5">
      <!-- $\mathdefault{−3}$ -->
      <g transform="translate(-9.57069 26.797401) scale(0.08 -0.08)">
       <defs>
        <path id="CMR17-33" d="M 1414 2157 
C 1984 2157 2234 1662 2234 1090 
C 2234 320 1824 25 1453 25 
C 1114 25 563 194 390 693 
C 422 680 454 680 486 680 
C 640 680 755 782 755 948 
C 755 1133 614 1216 486 1216 
C 378 1216 211 1165 211 926 
C 211 335 787 -128 1466 -128 
C 2176 -128 2720 430 2720 1085 
C 2720 1707 2208 2157 1600 2227 
C 2086 2328 2554 2756 2554 3329 
C 2554 3820 2048 4179 1472 4179 
C 890 4179 378 3829 378 3329 
C 378 3110 544 3072 627 3072 
C 762 3072 877 3155 877 3321 
C 877 3486 762 3569 627 3569 
C 602 3569 570 3569 544 3557 
C 730 3959 1235 4032 1459 4032 
C 1683 4032 2106 3925 2106 3320 
C 2106 3143 2080 2828 1862 2550 
C 1670 2304 1453 2304 1242 2284 
C 1210 2284 1062 2269 1037 2269 
C 992 2263 966 2257 966 2208 
C 966 2163 973 2157 1101 2157 
L 1414 2157 
z
" transform="scale(0.015625)"/>
       </defs>
       <use xlink:href="#CMSY10-0" transform="scale(0.996264)"/>
       <use xlink:href="#CMR17-33" transform="translate(77.487468 0) scale(0.996264)"/>
      </g>
     </g>
    </g>
    <g id="ytick_2">
     <g id="line2d_5">
      <g>
       <use xlink:href="#m24e2eaf988" x="6.75" y="18.161563" style="stroke: #000000; stroke-width: 0.8"/>
      </g>
     </g>
     <g id="text_6">
      <!-- $\mathdefault{3}$ -->
      <g transform="translate(-2.984183 20.928964) scale(0.08 -0.08)">
       <use xlink:href="#CMR17-33" transform="scale(0.996264)"/>
      </g>
     </g>
    </g>
    <g id="text_7">
     <!-- $J_T$ -->
     <g transform="translate(57.512754 19.172571) rotate(-90) scale(0.08 -0.08)">
      <defs>
       <path id="CMMI12-4a" d="M 3418 3912 
C 3469 4103 3482 4167 3795 4167 
C 3898 4167 3962 4167 3962 4282 
C 3962 4352 3904 4352 3878 4352 
C 3770 4352 3648 4352 3533 4352 
L 3181 4352 
C 2912 4352 2630 4352 2362 4352 
C 2304 4352 2227 4352 2227 4237 
C 2227 4173 2278 4173 2278 4167 
L 2438 4167 
C 2950 4167 2950 4116 2950 4020 
C 2950 4013 2950 3969 2925 3868 
L 2189 960 
C 2022 312 1594 0 1286 0 
C 1069 0 762 100 685 431 
C 710 424 742 418 768 418 
C 979 418 1146 603 1146 788 
C 1146 890 1082 1024 890 1024 
C 774 1024 506 961 506 549 
C 506 151 838 -128 1299 -128 
C 1882 -128 2509 311 2662 915 
L 3418 3912 
z
" transform="scale(0.015625)"/>
       <path id="CMMI12-54" d="M 2669 3910 
C 2707 4064 2720 4121 2816 4147 
C 2867 4160 3078 4160 3213 4160 
C 3853 4160 4154 4134 4154 3634 
C 4154 3537 4128 3295 4090 3057 
L 4083 2980 
C 4083 2954 4109 2916 4147 2916 
C 4211 2916 4211 2948 4230 3050 
L 4416 4184 
C 4429 4243 4429 4256 4429 4275 
C 4429 4345 4390 4345 4262 4345 
L 762 4345 
C 614 4345 608 4339 570 4224 
L 179 3070 
C 173 3056 154 2986 154 2980 
C 154 2948 179 2916 218 2916 
C 269 2916 282 2941 307 3024 
C 576 3801 710 4160 1562 4160 
L 1990 4160 
C 2144 4160 2208 4160 2208 4089 
C 2208 4069 2208 4057 2176 3941 
L 1318 499 
C 1254 249 1242 185 563 185 
C 403 185 358 185 358 64 
C 358 0 429 0 461 0 
C 621 0 787 0 947 0 
L 1946 0 
C 2106 0 2278 0 2438 0 
C 2509 0 2573 0 2573 121 
C 2573 185 2528 185 2362 185 
C 1786 185 1786 243 1786 339 
C 1786 346 1786 391 1811 494 
L 2669 3910 
z
" transform="scale(0.015625)"/>
      </defs>
      <use xlink:href="#CMMI12-4a" transform="scale(0.996264)"/>
      <use xlink:href="#CMMI12-54" transform="translate(53.917955 -14.943915) scale(0.697382)"/>
     </g>
    </g>
   </g>
   <g id="line2d_6">
    <path d="M 6.75 6.780101 
L 7.172727 6.768219 
L 7.595455 6.732501 
L 8.018182 6.672832 
L 8.440909 6.58936 
L 8.863636 6.482954 
L 9.286364 6.355735 
L 9.709091 6.21148 
L 10.131818 6.055675 
L 10.554545 5.89506 
L 10.977273 5.736709 
L 11.4 5.586895 
L 11.822727 5.450127 
L 12.245455 5.328665 
L 12.668182 5.222593 
L 13.090909 5.130316 
L 13.513636 5.049222 
L 13.936364 4.976294 
L 14.359091 4.908544 
L 14.781818 4.843278 
L 15.204545 4.778212 
L 15.627273 4.711526 
L 16.05 4.641885 
L 16.472727 4.568486 
L 16.895455 4.491141 
L 17.318182 4.410432 
L 17.740909 4.327927 
L 18.163636 4.246456 
L 18.586364 4.170409 
L 19.009091 4.10594 
L 19.431818 4.060919 
L 19.854545 4.044411 
L 20.277273 4.065672 
L 20.7 4.132946 
L 21.122727 4.252699 
L 21.545455 4.429817 
L 21.968182 4.668649 
L 22.390909 4.974347 
L 22.813636 5.354102 
L 23.236364 5.81834 
L 23.659091 6.382066 
L 24.081818 7.066288 
L 24.504545 7.89932 
L 24.927273 8.917118 
L 25.35 10.160152 
L 25.772727 11.663246 
L 26.195455 13.444229 
L 26.618182 15.493759 
L 27.040909 17.649642 
L 27.463636 20.13263 
L 27.886364 20.13263 
L 28.309091 17.649642 
L 28.731818 15.493759 
L 29.154545 13.444229 
L 29.577273 11.663246 
L 30 10.160152 
L 30.422727 8.917118 
L 30.845455 7.89932 
L 31.268182 7.066288 
L 31.690909 6.382066 
L 32.113636 5.81834 
L 32.536364 5.354102 
L 32.959091 4.974347 
L 33.381818 4.668649 
L 33.804545 4.429817 
L 34.227273 4.252699 
L 34.65 4.132946 
L 35.072727 4.065672 
L 35.495455 4.044411 
L 35.918182 4.060919 
L 36.340909 4.10594 
L 36.763636 4.170409 
L 37.186364 4.246456 
L 37.609091 4.327927 
L 38.031818 4.410432 
L 38.454545 4.491141 
L 38.877273 4.568486 
L 39.3 4.641885 
L 39.722727 4.711526 
L 40.145455 4.778212 
L 40.568182 4.843278 
L 40.990909 4.908544 
L 41.413636 4.976294 
L 41.836364 5.049222 
L 42.259091 5.130316 
L 42.681818 5.222593 
L 43.104545 5.328665 
L 43.527273 5.450127 
L 43.95 5.586895 
L 44.372727 5.736709 
L 44.795455 5.89506 
L 45.218182 6.055675 
L 45.640909 6.21148 
L 46.063636 6.355735 
L 46.486364 6.482954 
L 46.909091 6.58936 
L 47.331818 6.672832 
L 47.754545 6.732501 
L 48.177273 6.768219 
L 48.6 6.780101 
" clip-path="url(#pd950e13791)" style="fill: none; stroke: #0000ff; stroke-width: 0.75; stroke-linecap: square"/>
   </g>
   <g id="patch_3">
    <path d="M 6.75 24.03 
L 6.75 3.24 
" style="fill: none; stroke: #000000; stroke-width: 0.8; stroke-linejoin: miter; stroke-linecap: square"/>
   </g>
   <g id="patch_4">
    <path d="M 48.6 24.03 
L 48.6 3.24 
" style="fill: none; stroke: #000000; stroke-width: 0.8; stroke-linejoin: miter; stroke-linecap: square"/>
   </g>
   <g id="patch_5">
    <path d="M 6.75 24.03 
L 48.6 24.03 
" style="fill: none; stroke: #000000; stroke-width: 0.8; stroke-linejoin: miter; stroke-linecap: square"/>
   </g>
   <g id="patch_6">
    <path d="M 6.75 3.24 
L 48.6 3.24 
" style="fill: none; stroke: #000000; stroke-width: 0.8; stroke-linejoin: miter; stroke-linecap: square"/>
   </g>
   <g id="text_8">
    <!-- $\times \kappa^{1/2}$ -->
    <g transform="translate(6.75 1.690254) scale(0.08 -0.08)">
     <defs>
      <path id="CMSY10-2" d="M 2490 1785 
L 1210 3059 
C 1133 3136 1120 3148 1069 3148 
C 1005 3148 941 3091 941 3020 
C 941 2976 954 2963 1024 2892 
L 2304 1606 
L 1024 320 
C 954 249 941 236 941 192 
C 941 121 1005 64 1069 64 
C 1120 64 1133 76 1210 153 
L 2483 1427 
L 3808 102 
C 3821 96 3866 64 3904 64 
C 3981 64 4032 121 4032 192 
C 4032 204 4032 230 4013 262 
C 4006 275 2989 1280 2669 1606 
L 3840 2777 
C 3872 2816 3968 2899 4000 2937 
C 4006 2950 4032 2976 4032 3020 
C 4032 3091 3981 3148 3904 3148 
C 3853 3148 3827 3123 3757 3052 
L 2490 1785 
z
" transform="scale(0.015625)"/>
      <path id="CMMI12-14" d="M 1363 1600 
C 1574 1714 1811 1912 1971 2046 
C 2355 2377 2496 2479 2739 2574 
C 2714 2536 2707 2485 2707 2441 
C 2707 2268 2854 2236 2918 2236 
C 3123 2236 3238 2427 3238 2548 
C 3238 2586 3226 2752 3002 2752 
C 2618 2752 2240 2431 1958 2198 
C 1587 1876 1402 1738 1139 1656 
L 1382 2656 
C 1382 2759 1299 2816 1216 2816 
C 1158 2816 1018 2797 966 2592 
L 371 224 
C 352 148 352 134 352 96 
C 352 6 422 -64 518 -64 
C 710 -64 749 106 781 244 
C 819 380 1082 1472 1094 1472 
C 1907 1472 2182 1264 2182 943 
C 2182 897 2182 878 2163 806 
C 2138 682 2138 609 2138 570 
C 2138 178 2387 -64 2701 -64 
C 2963 -64 3110 123 3206 291 
C 3341 543 3424 898 3424 923 
C 3424 956 3398 981 3360 981 
C 3302 981 3296 956 3270 852 
C 3187 542 3046 64 2720 64 
C 2579 64 2509 148 2509 374 
C 2509 498 2534 641 2560 737 
C 2573 802 2592 880 2592 951 
C 2592 1541 1786 1600 1363 1600 
z
" transform="scale(0.015625)"/>
      <path id="CMR17-31" d="M 1702 4058 
C 1702 4192 1696 4192 1606 4192 
C 1357 3916 979 3827 621 3827 
C 602 3827 570 3827 563 3808 
C 557 3795 557 3782 557 3648 
C 755 3648 1088 3686 1344 3839 
L 1344 461 
C 1344 236 1331 160 781 160 
L 589 160 
L 589 0 
C 896 0 1216 0 1523 0 
C 1830 0 2150 0 2458 0 
L 2458 160 
L 2266 160 
C 1715 160 1702 230 1702 458 
L 1702 4058 
z
" transform="scale(0.015625)"/>
      <path id="CMMI12-3d" d="M 2746 4562 
C 2746 4569 2784 4666 2784 4678 
C 2784 4755 2720 4800 2669 4800 
C 2637 4800 2579 4800 2528 4659 
L 384 -1363 
C 384 -1370 346 -1465 346 -1478 
C 346 -1555 410 -1600 461 -1600 
C 499 -1600 557 -1593 602 -1459 
L 2746 4562 
z
" transform="scale(0.015625)"/>
      <path id="CMR17-32" d="M 2669 989 
L 2554 989 
C 2490 536 2438 459 2413 420 
C 2381 369 1920 369 1830 369 
L 602 369 
C 832 619 1280 1072 1824 1597 
C 2214 1967 2669 2402 2669 3035 
C 2669 3790 2067 4224 1395 4224 
C 691 4224 262 3604 262 3030 
C 262 2780 448 2748 525 2748 
C 589 2748 781 2787 781 3010 
C 781 3207 614 3264 525 3264 
C 486 3264 448 3258 422 3245 
C 544 3790 915 4058 1306 4058 
C 1862 4058 2227 3617 2227 3035 
C 2227 2479 1901 2000 1536 1584 
L 262 146 
L 262 0 
L 2515 0 
L 2669 989 
z
" transform="scale(0.015625)"/>
     </defs>
     <use xlink:href="#CMSY10-2" transform="scale(0.996264)"/>
     <use xlink:href="#CMMI12-14" transform="translate(77.487468 0) scale(0.996264)"/>
     <use xlink:href="#CMR17-31" transform="translate(133.642092 36.153639) scale(0.697382)"/>
     <use xlink:href="#CMMI12-3d" transform="translate(165.625274 36.153639) scale(0.697382)"/>
     <use xlink:href="#CMR17-32" transform="translate(199.767565 36.153639) scale(0.697382)"/>
    </g>
   </g>
  </g>
 </g>
 <defs>
  <clipPath id="pd950e13791">
   <rect x="6.75" y="3.24" width="41.85" height="20.79"/>
  </clipPath>
 </defs>
</svg>
